<svg xmlns="http://www.w3.org/2000/svg" viewBox="0 0 64 64" fill="none">
  <defs>
    <linearGradient id="bg" x1="8" y1="6" x2="56" y2="58" gradientUnits="userSpaceOnUse">
      <stop offset="0" stop-color="#0284C7"/>
      <stop offset="1" stop-color="#4F46E5"/>
    </linearGradient>
  </defs>
  <rect x="4" y="4" width="56" height="56" rx="16" fill="url(#bg)"/>
  <rect x="5" y="5" width="54" height="54" rx="15" stroke="rgba(255,255,255,0.24)"/>

  <!-- P monogram -->
  <path d="M22 46V18H35.5C42.4 18 47 22.2 47 28C47 33.8 42.4 38 35.5 38H29.5V46H22ZM29.5 31.8H34.8C38.2 31.8 40 30.4 40 28C40 25.6 38.2 24.2 34.8 24.2H29.5V31.8Z" fill="#FFFFFF"/>

  <!-- Subtle wish sparkle -->
  <path d="M48 13L49.4 16.1L52.6 17.2L49.4 18.3L48 21.4L46.6 18.3L43.4 17.2L46.6 16.1L48 13Z" fill="#DBEAFE"/>
</svg>
